# xmcd
#
# Track frame offsets: 
#        182
#        13397
#        25165
#        39130
#        53182
#        67897
#        78645
#        92645
#        106782
#        127022
#        139717
#        150805
#        164170
#        175330
#        188602
#        200157
#        213790
#        223837
#
# Disc length: 3144 seconds
#
# Revision: 5
# Processed by: cddbd v1.5.2PL0 Copyright (c) Steve Scherf et al.
# Submitted via: ExactAudioCopyFreeDBPlugin 1.0
#
DISCID=f60c4612
DTITLE=Lowell Fulson - West Coast Blues
DYEAR=1900
DGENRE=Blues
TTITLE0=Do Me Right
TTITLE1=(It) Took A Long Time
TTITLE2=Tollin' Bells
TTITLE3=Someday Baby
TTITLE4=I Want To Make Love To You
TTITLE5=Coming Home (Someday)
TTITLE6=Have You Changed Your Mind?
TTITLE7=Worry Worry
TTITLE8=I Want To Know
TTITLE9=I'm Glad You Reconsidered
TTITLE10=Blue Shadows
TTITLE11=Hung Down Head
TTITLE12=So Many Tears
TTITLE13=Pay Day Blues
TTITLE14=Why Don't You Write Me?
TTITLE15=Blue Soul
TTITLE16=Shed No Tears
TTITLE17=Trouble With The Blues
EXTD=
EXTT0=
EXTT1=
EXTT2=
EXTT3=
EXTT4=
EXTT5=
EXTT6=
EXTT7=
EXTT8=
EXTT9=
EXTT10=
EXTT11=
EXTT12=
EXTT13=
EXTT14=
EXTT15=
EXTT16=
EXTT17=
PLAYORDER=
